<svg xmlns="http://www.w3.org/2000/svg" xmlns:xlink="http://www.w3.org/1999/xlink" viewBox="0 0 44 53.75" version="1.1" x="0px" y="0px"><title>schedule</title><desc>Created with Sketch.</desc><g stroke="none" stroke-width="1" fill="none" fill-rule="evenodd"><g transform="translate(-108.000000, -164.000000)" fill="#000000"><path d="M143.1608,188.5811 C140.9238,188.5811 138.6868,189.4341 136.9798,191.1421 C133.5658,194.5561 133.5658,200.0911 136.9798,203.5051 C138.6868,205.2121 140.9238,206.0661 143.1608,206.0661 C145.3988,206.0661 147.6358,205.2121 149.3428,203.5051 C152.7568,200.0911 152.7568,194.5561 149.3428,191.1421 C147.6358,189.4351 145.3988,188.5811 143.1608,188.5811 Z M147.9288,202.0911 C146.6558,203.3641 144.9618,204.0661 143.1608,204.0661 C141.3608,204.0661 139.6668,203.3641 138.3938,202.0911 C135.7648,199.4621 135.7648,195.1851 138.3938,192.5561 C139.6668,191.2821 141.3608,190.5811 143.1608,190.5811 C144.9618,190.5811 146.6558,191.2821 147.9288,192.5561 C149.2018,193.8291 149.9038,195.5221 149.9038,197.3231 C149.9038,199.1241 149.2018,200.8181 147.9288,202.0911 Z M146,196 L144,196 L144,194 C144,193.448 143.552,193 143,193 C142.448,193 142,193.448 142,194 L142,197 C142,197.552 142.448,198 143,198 L146,198 C146.552,198 147,197.552 147,197 C147,196.448 146.552,196 146,196 Z M132,203 C132.022803,203 131.045428,202.999235 131.067852,202.997731 C131.588249,202.962809 132,202.529197 132,202 C132,201.448 131.552,201 131,201 L112,201 C110.897,201 110,200.103 110,199 L110,178 L147,178 L147,185 C147,185.552 147.448,186 148,186 C148.552,186 149,185.552 149,185 L149,172 C149,169.794 147.206,168 145,168 L141,168 L141,167.5 C141,165.57 139.43,164 137.5,164 C135.57,164 134,165.57 134,167.5 L134,168 L124,168 L124,167.5 C124,165.57 122.43,164 120.5,164 C118.57,164 117,165.57 117,167.5 L117,168 L112,168 C109.794,168 108,169.794 108,172 L108,199 C108,201.206 109.794,203 112,203 L132,203 Z M110,172 C110,170.897 110.897,170 112,170 L117,170 L117,170.5 C117,172.43 118.57,174 120.5,174 C122.43,174 124,172.43 124,170.5 L124,170 L134,170 L134,170.5 C134,172.43 135.57,174 137.5,174 C139.43,174 141,172.43 141,170.5 L141,170 L145,170 C146.103,170 147,170.897 147,172 L147,176 L110,176 L110,172 Z M119,167.5 C119,166.673 119.673,166 120.5,166 C121.327,166 122,166.673 122,167.5 L122,170.5 C122,171.327 121.327,172 120.5,172 C119.673,172 119,171.327 119,170.5 L119,167.5 Z M136,167.5 C136,166.673 136.673,166 137.5,166 C138.327,166 139,166.673 139,167.5 L139,170.5 C139,171.327 138.327,172 137.5,172 C136.673,172 136,171.327 136,170.5 L136,167.5 Z M118.5,180 C116.57,180 115,181.57 115,183.5 C115,185.43 116.57,187 118.5,187 C120.43,187 122,185.43 122,183.5 C122,181.57 120.43,180 118.5,180 Z M118.5,185 C117.673,185 117,184.327 117,183.5 C117,182.673 117.673,182 118.5,182 C119.327,182 120,182.673 120,183.5 C120,184.327 119.327,185 118.5,185 Z M128.5,180 C126.57,180 125,181.57 125,183.5 C125,185.43 126.57,187 128.5,187 C130.43,187 132,185.43 132,183.5 C132,181.57 130.43,180 128.5,180 Z M128.5,185 C127.673,185 127,184.327 127,183.5 C127,182.673 127.673,182 128.5,182 C129.327,182 130,182.673 130,183.5 C130,184.327 129.327,185 128.5,185 Z M135,183.5 C135,185.43 136.57,187 138.5,187 C140.43,187 142,185.43 142,183.5 C142,181.57 140.43,180 138.5,180 C136.57,180 135,181.57 135,183.5 Z M140,183.5 C140,184.327 139.327,185 138.5,185 C137.673,185 137,184.327 137,183.5 C137,182.673 137.673,182 138.5,182 C139.327,182 140,182.673 140,183.5 Z M128.5,190 C126.57,190 125,191.57 125,193.5 C125,195.43 126.57,197 128.5,197 C130.43,197 132,195.43 132,193.5 C132,191.57 130.43,190 128.5,190 Z M128.5,195 C127.673,195 127,194.327 127,193.5 C127,192.673 127.673,192 128.5,192 C129.327,192 130,192.673 130,193.5 C130,194.327 129.327,195 128.5,195 Z M118.5,190 C116.57,190 115,191.57 115,193.5 C115,195.43 116.57,197 118.5,197 C120.43,197 122,195.43 122,193.5 C122,191.57 120.43,190 118.5,190 Z M118.5,195 C117.673,195 117,194.327 117,193.5 C117,192.673 117.673,192 118.5,192 C119.327,192 120,192.673 120,193.5 C120,194.327 119.327,195 118.5,195 Z"/></g></g><text x="0" y="58" fill="#000000" font-size="5px" font-weight="bold" font-family="'Helvetica Neue', Helvetica, Arial-Unicode, Arial, Sans-serif">Created by kepl9r</text><text x="0" y="63" fill="#000000" font-size="5px" font-weight="bold" font-family="'Helvetica Neue', Helvetica, Arial-Unicode, Arial, Sans-serif">from the Noun Project</text></svg>