<svg width="12" height="12" viewBox="0 0 12 12" fill="none" xmlns="http://www.w3.org/2000/svg">
<path fill-rule="evenodd" clip-rule="evenodd" d="M10.5 10C10.7761 10 11 10.2239 11 10.5C11 10.7761 10.7761 11 10.5 11H1.5C1.22386 11 1 10.7761 1 10.5C1 10.2239 1.22386 10 1.5 10H10.5ZM3.14649 6.64645L8.64649 1.14645C8.82673 0.966205 9.11035 0.95234 9.30649 1.10485L9.3536 1.14645L10.8536 2.64645C11.0338 2.82669 11.0477 3.1103 10.8952 3.30645L10.8536 3.35355L5.3536 8.85355C5.27546 8.93169 5.17412 8.9813 5.06576 8.99566L5.00004 9H3.50004C3.24362 9 3.03229 8.80698 3.00341 8.55831L3.00004 8.5V7C3.00004 6.88949 3.03663 6.78276 3.10308 6.69599L3.14649 6.64645L8.64649 1.14645L3.14649 6.64645ZM9 2.20711L4 7.20711V8H4.79289L9.79289 3L9 2.20711Z" fill="#19274B"/>
</svg>
